<?xml version="1.0" standalone="no"?>
<!DOCTYPE svg PUBLIC "-//W3C//DTD SVG 20010904//EN"
 "http://www.w3.org/TR/2001/REC-SVG-20010904/DTD/svg10.dtd">
<svg version="1.0" xmlns="http://www.w3.org/2000/svg"
 width="906.000000pt" height="212.000000pt" viewBox="0 0 906.000000 212.000000"
 preserveAspectRatio="xMidYMid meet">

<g transform="translate(0.000000,212.000000) scale(0.100000,-0.100000)"
fill="#000000" stroke="none">
<path d="M890 1545 c0 -300 -3 -545 -7 -545 -8 0 -74 50 -88 66 -17 20 -154
114 -166 114 -7 0 -34 -16 -60 -35 -27 -19 -51 -35 -54 -35 -3 0 -5 16 -5 35
l0 35 -150 0 -150 0 0 -148 0 -148 -45 -32 -45 -32 0 -340 c0 -333 0 -340 20
-340 20 0 20 7 20 330 l0 329 183 127 c100 70 184 131 185 136 5 12 88 68 101
68 12 0 68 -39 111 -78 14 -12 53 -42 88 -67 l62 -45 0 -380 0 -380 -50 0 -50
0 0 190 0 190 -162 -2 -163 -3 -3 -207 -2 -208 25 0 25 0 0 190 0 190 120 0
120 0 0 -190 0 -190 90 0 90 0 0 385 c0 212 2 385 5 385 2 0 40 -25 85 -57
l80 -56 0 -329 0 -328 280 0 280 0 0 975 0 975 -385 0 -385 0 0 -545z m728
-427 l-3 -933 -237 -3 -238 -2 0 260 0 260 45 0 45 0 0 160 0 160 -100 0 -100
0 0 -55 c0 -33 -4 -55 -11 -55 -6 0 -28 12 -50 28 l-39 27 0 543 0 542 345 0
345 0 -2 -932z m-1148 -5 c0 -16 -10 -40 -23 -54 -29 -35 -182 -141 -191 -132
-8 8 -8 198 1 206 3 4 53 7 110 7 l103 0 0 -27z m720 -248 l0 -115 -25 0 c-22
0 -25 4 -25 35 0 29 -6 39 -35 57 -33 22 -35 26 -35 81 l0 57 60 0 60 0 0
-115z"/>
<path d="M1030 1710 l0 -160 100 0 100 0 0 160 0 160 -100 0 -100 0 0 -160z
m160 5 l0 -115 -60 0 -60 0 0 115 0 115 60 0 60 0 0 -115z"/>
<path d="M1312 1713 l3 -158 100 0 100 0 3 158 3 157 -106 0 -106 0 3 -157z
m166 0 l3 -113 -66 0 -65 0 0 108 c0 60 3 112 7 116 4 4 32 6 63 4 l55 -3 3
-112z"/>
<path d="M1030 1290 l0 -160 100 0 100 0 0 160 0 160 -100 0 -100 0 0 -160z
m160 5 l0 -115 -60 0 -60 0 0 115 0 115 60 0 60 0 0 -115z"/>
<path d="M1312 1293 l3 -158 100 0 100 0 3 158 3 157 -106 0 -106 0 3 -157z
m168 2 l0 -115 -65 0 -65 0 0 108 c0 60 3 112 7 115 3 4 33 7 65 7 l58 0 0
-115z"/>
<path d="M1312 863 l3 -158 100 0 100 0 3 158 3 157 -106 0 -106 0 3 -157z
m168 2 l0 -115 -65 0 -65 0 0 108 c0 60 3 112 7 115 3 4 33 7 65 7 l58 0 0
-115z"/>
<path d="M2290 985 l0 -925 344 0 c330 0 347 1 438 24 186 47 301 133 371 276
75 153 68 358 -18 504 -33 57 -107 131 -163 163 -26 15 -49 30 -52 34 -3 3
-15 10 -28 14 -22 6 -20 10 35 60 239 216 168 627 -127 730 -111 39 -174 45
-491 45 l-309 0 0 -925z m650 731 c102 -24 164 -68 203 -141 17 -32 21 -57 21
-130 0 -80 -3 -96 -28 -142 -32 -58 -88 -103 -159 -127 -38 -13 -92 -16 -272
-16 l-225 0 0 285 0 285 203 0 c132 -1 221 -5 257 -14z m65 -767 c113 -21 215
-94 267 -191 20 -37 23 -57 23 -153 0 -100 -2 -114 -27 -160 -52 -97 -121
-153 -229 -185 -61 -18 -91 -20 -311 -18 l-243 3 -3 345 c-1 190 0 351 3 357
6 17 434 18 520 2z"/>
<path d="M8501 1782 c-29 -11 -65 -28 -80 -39 -39 -28 -71 -99 -71 -156 0
-105 59 -157 232 -203 49 -13 102 -31 119 -39 88 -46 40 -137 -74 -138 -70 -1
-115 24 -136 74 l-16 39 -72 0 -73 0 0 -30 c0 -73 82 -166 168 -191 60 -18
184 -18 244 0 57 16 125 72 144 118 18 42 18 137 0 171 -33 63 -87 93 -227
128 -138 34 -169 56 -150 108 28 72 203 60 218 -14 5 -30 6 -30 79 -30 81 0
81 0 63 63 -14 51 -59 100 -116 127 -68 32 -181 37 -252 12z"/>
<path d="M3917 1678 c-25 -62 -88 -218 -141 -346 l-95 -233 82 3 82 3 24 68
23 67 133 0 134 0 21 -57 c11 -32 23 -64 25 -70 3 -9 29 -13 85 -13 44 0 80 1
80 3 0 1 -63 155 -139 342 l-139 340 -65 3 -65 3 -45 -113z m156 -196 c21 -57
37 -108 37 -113 0 -5 -38 -9 -85 -9 -47 0 -85 3 -85 8 0 21 84 232 90 225 4
-4 23 -54 43 -111z"/>
<path d="M4520 1720 l0 -70 100 0 100 0 0 -275 0 -275 70 0 70 0 0 275 0 275
100 0 100 0 0 70 0 70 -270 0 -270 0 0 -70z"/>
<path d="M5270 1445 l0 -345 75 0 75 0 0 345 0 345 -75 0 -75 0 0 -345z"/>
<path d="M5670 1445 l0 -347 148 4 c133 3 152 6 203 30 72 33 134 94 168 167
22 47 26 70 26 146 0 76 -4 99 -26 146 -34 72 -96 134 -168 167 -51 25 -69 27
-203 30 l-148 4 0 -347z m288 179 c72 -36 106 -93 106 -179 0 -116 -69 -192
-184 -202 l-60 -6 0 207 0 206 43 0 c26 0 63 -10 95 -26z"/>
<path d="M6450 1445 l0 -345 200 0 200 0 0 70 0 70 -125 0 -125 0 0 70 0 70
120 0 120 0 0 70 0 70 -120 0 -120 0 0 65 0 65 125 0 125 0 0 70 0 70 -200 0
-200 0 0 -345z"/>
<path d="M7062 1777 c2 -7 64 -163 138 -345 l135 -332 65 0 65 0 132 328 c73
180 135 335 139 345 6 15 -2 17 -74 17 l-80 0 -82 -222 c-46 -123 -87 -234
-92 -248 -8 -21 -22 10 -99 220 -49 135 -89 246 -89 247 0 2 -36 3 -81 3 -61
0 -80 -3 -77 -13z"/>
<path d="M7950 1445 l0 -345 75 0 75 0 0 345 0 345 -75 0 -75 0 0 -345z"/>
<path d="M3680 845 l0 -55 1120 0 1120 0 0 55 0 55 -1120 0 -1120 0 0 -55z"/>
<path d="M7060 500 c0 -44 -2 -80 -4 -80 -2 0 -17 7 -32 15 -43 22 -62 19
-101 -20 -32 -32 -35 -39 -30 -78 10 -74 87 -112 145 -71 20 14 22 14 22 0 0
-9 7 -16 15 -16 13 0 15 25 15 165 0 140 -2 165 -15 165 -12 0 -15 -16 -15
-80z m-25 -105 c28 -27 31 -45 14 -78 -16 -29 -28 -37 -61 -37 -35 0 -68 32
-68 65 0 31 41 75 70 75 12 0 32 -11 45 -25z"/>
<path d="M3803 544 c-3 -10 -31 -77 -60 -148 -58 -140 -59 -146 -40 -146 8 0
21 18 30 40 l15 40 67 0 67 0 15 -40 c9 -22 22 -40 30 -40 7 0 13 3 13 8 0 9
-118 294 -125 300 -2 3 -8 -4 -12 -14z m46 -132 l21 -52 -55 0 c-30 0 -55 2
-55 4 0 2 7 21 16 42 9 22 21 50 26 64 11 29 15 25 47 -58z"/>
<path d="M4230 480 c0 -36 -2 -40 -25 -40 -14 0 -25 -4 -25 -10 0 -5 11 -10
25 -10 25 0 25 -1 25 -85 0 -69 3 -85 15 -85 12 0 15 16 15 85 0 84 0 85 25
85 31 0 33 17 3 22 -19 2 -24 10 -26 41 -5 53 -32 51 -32 -3z"/>
<path d="M5210 480 c0 -36 -2 -40 -25 -40 -14 0 -25 -4 -25 -10 0 -5 11 -10
25 -10 25 0 25 -1 25 -85 0 -69 3 -85 15 -85 12 0 15 16 15 85 0 84 0 85 25
85 31 0 33 17 3 22 -19 2 -24 10 -26 41 -5 53 -32 51 -32 -3z"/>
<path d="M7596 513 c-12 -12 -6 -33 9 -33 8 0 15 6 15 14 0 17 -14 28 -24 19z"/>
<path d="M5332 498 c7 -19 38 -22 38 -4 0 10 -9 16 -21 16 -12 0 -19 -5 -17
-12z"/>
<path d="M4404 440 c-30 -12 -64 -58 -64 -87 0 -32 26 -80 49 -93 39 -20 91
-12 122 19 76 77 -7 202 -107 161z m80 -41 c50 -40 21 -119 -44 -119 -64 0
-91 70 -45 115 30 30 54 31 89 4z"/>
<path d="M4652 434 c-12 -8 -22 -10 -22 -5 0 6 -7 11 -15 11 -12 0 -15 -17
-15 -95 0 -78 3 -95 15 -95 12 0 15 14 15 65 0 52 4 69 20 85 11 11 26 20 33
20 31 -1 40 -20 45 -94 6 -93 22 -101 22 -11 0 52 4 69 20 85 21 21 29 23 54
14 13 -5 16 -22 16 -85 0 -64 3 -79 15 -79 12 0 15 16 15 80 0 67 -3 83 -20
100 -24 24 -48 25 -78 4 -20 -14 -24 -14 -44 0 -12 9 -29 16 -38 16 -9 0 -26
-7 -38 -16z"/>
<path d="M4980 437 c-14 -7 -33 -29 -43 -50 -33 -67 8 -137 82 -137 19 0 43 7
53 17 17 15 18 15 18 0 0 -10 7 -17 15 -17 12 0 15 17 15 95 0 78 -3 95 -15
95 -8 0 -15 -5 -15 -10 0 -6 -13 -4 -30 5 -35 18 -47 19 -80 2z m84 -38 c50
-39 24 -119 -39 -119 -67 0 -95 79 -43 123 27 22 49 22 82 -4z"/>
<path d="M5452 438 c-27 -14 -39 -53 -22 -73 7 -8 30 -20 51 -27 50 -14 66
-32 49 -53 -7 -8 -23 -15 -35 -15 -12 0 -28 7 -35 15 -13 16 -40 21 -40 8 1
-47 89 -63 133 -25 35 30 6 92 -43 92 -25 0 -60 29 -54 45 7 18 55 20 71 4 18
-18 36 -7 21 13 -17 23 -66 31 -96 16z"/>
<path d="M5664 440 c-30 -12 -64 -58 -64 -87 0 -32 26 -80 49 -93 35 -18 88
-12 118 14 35 30 23 46 -16 23 -39 -23 -73 -21 -101 6 l-25 22 88 3 87 3 0 27
c-1 63 -74 107 -136 82z m83 -44 c15 -13 25 -27 22 -31 -4 -3 -38 -5 -75 -3
l-69 3 27 28 c33 33 58 34 95 3z"/>
<path d="M6414 440 c-30 -12 -64 -58 -64 -87 0 -32 26 -80 49 -93 39 -20 91
-12 122 19 76 77 -7 202 -107 161z m80 -41 c50 -40 21 -119 -44 -119 -64 0
-91 70 -45 115 30 30 54 31 89 4z"/>
<path d="M6622 438 c-27 -14 -39 -53 -22 -73 7 -8 30 -20 51 -27 50 -14 66
-32 49 -53 -7 -8 -23 -15 -35 -15 -12 0 -28 7 -35 15 -13 16 -40 21 -40 8 1
-47 89 -63 133 -25 35 30 6 92 -43 92 -25 0 -60 29 -54 45 7 18 55 20 71 4 18
-18 36 -7 21 13 -17 23 -66 31 -96 16z"/>
<path d="M7203 440 c-31 -13 -57 -57 -57 -98 0 -46 49 -92 98 -92 32 0 86 32
86 51 0 14 -26 11 -40 -6 -17 -21 -73 -19 -93 3 -10 10 -17 22 -17 25 0 4 36
7 80 7 79 0 80 0 80 26 0 36 -16 61 -50 79 -32 17 -54 18 -87 5z m87 -40 c33
-33 24 -40 -45 -40 -37 0 -65 4 -65 10 0 19 40 50 65 50 14 0 34 -9 45 -20z"/>
<path d="M7702 438 c-27 -14 -39 -53 -22 -73 7 -8 30 -20 51 -27 50 -14 66
-32 49 -53 -7 -8 -23 -15 -35 -15 -12 0 -28 7 -35 15 -13 16 -40 21 -40 8 1
-47 89 -63 133 -25 35 30 6 92 -43 92 -25 0 -60 29 -54 45 7 18 55 20 71 4 18
-18 36 -7 21 13 -17 23 -66 31 -96 16z"/>
<path d="M3980 381 c0 -62 13 -110 33 -123 19 -12 72 -9 86 5 11 10 14 10 18
0 3 -7 11 -13 19 -13 11 0 14 20 14 95 0 78 -3 95 -15 95 -11 0 -15 -13 -15
-52 0 -69 -17 -102 -55 -106 -41 -5 -55 19 -55 95 0 49 -3 63 -15 63 -12 0
-15 -13 -15 -59z"/>
<path d="M5340 345 c0 -78 3 -95 15 -95 12 0 15 17 15 95 0 78 -3 95 -15 95
-12 0 -15 -17 -15 -95z"/>
<path d="M5830 430 c0 -5 28 -10 61 -12 l61 -3 -54 -70 c-29 -38 -57 -76 -61
-82 -6 -10 13 -13 82 -13 73 0 91 3 91 15 0 10 -16 15 -61 17 l-61 3 56 73
c31 40 56 74 56 77 0 3 -38 5 -85 5 -47 0 -85 -4 -85 -10z"/>
<path d="M6165 403 c9 -21 28 -66 43 -101 14 -34 29 -59 32 -55 6 7 52 115 77
179 3 8 -1 14 -10 14 -10 0 -24 -22 -38 -60 -12 -33 -25 -63 -29 -65 -4 -2
-18 24 -31 58 -16 39 -31 63 -42 65 -17 3 -17 1 -2 -35z"/>
<path d="M7406 358 c20 -46 40 -92 44 -103 8 -21 20 0 71 128 23 57 23 57 5
57 -8 0 -24 -27 -38 -65 -12 -36 -26 -65 -29 -65 -4 0 -17 29 -30 65 -16 47
-28 65 -40 65 -16 0 -14 -10 17 -82z"/>
<path d="M7590 345 c0 -78 3 -95 15 -95 12 0 15 17 15 95 0 78 -3 95 -15 95
-12 0 -15 -17 -15 -95z"/>
<path d="M7870 270 c0 -16 5 -21 23 -18 12 2 22 10 22 18 0 8 -10 16 -22 18
-18 3 -23 -2 -23 -18z"/>
</g>
</svg>
