{
  "accessors": [
    {
      "bufferView": 1,
      "byteOffset": 0,
      "componentType": 5126,
      "normalized": false,
      "count": 13274,
      "type": "VEC3",
      "max": [
        0.5689749717712402,
        1.0010449886322021,
        0.1612440049648285
      ],
      "min": [
        -0.573307991027832,
        -1.004601001739502,
        0.04161100089550018
      ]
    },
    {
      "bufferView": 2,
      "byteOffset": 0,
      "componentType": 5126,
      "normalized": false,
      "count": 13274,
      "type": "VEC2",
      "max": [
        0.93701171875,
        0.99951171875
      ],
      "min": [
        0.00028395652770996094,
        0.00028395652770996094
      ]
    },
    {
      "bufferView": 3,
      "byteOffset": 0,
      "componentType": 5126,
      "normalized": false,
      "count": 13274,
      "type": "VEC3",
      "max": [
        0.9999974370002747,
        0.9999754428863525,
        1.0
      ],
      "min": [
        -0.9999991655349731,
        -0.999932050704956,
        -1.0
      ]
    },
    {
      "bufferView": 0,
      "byteOffset": 0,
      "componentType": 5125,
      "normalized": false,
      "count": 66111,
      "type": "SCALAR"
    }
  ],
  "asset": {
    "generator": "pygltflib@v1.16.3",
    "version": "2.0"
  },
  "bufferViews": [
    {
      "buffer": 0,
      "byteOffset": 0,
      "byteLength": 264444,
      "target": 34963
    },
    {
      "buffer": 0,
      "byteOffset": 264444,
      "byteLength": 159288,
      "target": 34962
    },
    {
      "buffer": 0,
      "byteOffset": 423732,
      "byteLength": 106192,
      "target": 34962
    },
    {
      "buffer": 0,
      "byteOffset": 529924,
      "byteLength": 159288,
      "target": 34962
    },
    {
      "buffer": 0,
      "byteOffset": 689212,
      "byteLength": 662287
    }
  ],
  "buffers": [
    {
      "uri": "Porte_fen\u00eatre_\u00e0_la__0224054419_texture.bin",
      "byteLength": 1351500
    }
  ],
  "images": [
    {
      "mimeType": "image/jpeg",
      "bufferView": 4
    }
  ],
  "materials": [
    {
      "pbrMetallicRoughness": {
        "baseColorFactor": [
          1.0,
          1.0,
          1.0,
          1.0
        ],
        "metallicFactor": 0.0,
        "roughnessFactor": 0.8,
        "baseColorTexture": {
          "index": 0,
          "texCoord": 0
        }
      },
      "emissiveFactor": [
        0.0,
        0.0,
        0.0
      ],
      "alphaMode": "OPAQUE",
      "alphaCutoff": 0.5,
      "doubleSided": true
    }
  ],
  "meshes": [
    {
      "primitives": [
        {
          "attributes": {
            "POSITION": 0,
            "NORMAL": 2,
            "TEXCOORD_0": 1
          },
          "indices": 3,
          "mode": 4,
          "material": 0
        }
      ]
    }
  ],
  "nodes": [
    {
      "mesh": 0,
      "matrix": [
        1.0,
        0.0,
        0.0,
        0.0,
        0.0,
        1.0,
        0.0,
        0.0,
        0.0,
        0.0,
        1.0,
        0.0,
        0.0,
        0.0,
        0.0,
        1.0
      ]
    }
  ],
  "samplers": [
    {
      "magFilter": 9729,
      "minFilter": 9987,
      "wrapS": 10497,
      "wrapT": 10497
    }
  ],
  "scene": 0,
  "scenes": [
    {
      "nodes": [
        0
      ]
    }
  ],
  "textures": [
    {
      "sampler": 0,
      "source": 0
    }
  ]
}