{
  "accessors": [
    {
      "bufferView": 1,
      "byteOffset": 0,
      "componentType": 5126,
      "normalized": false,
      "count": 15522,
      "type": "VEC3",
      "max": [
        0.5649279952049255,
        1.0001150369644165,
        0.06723099946975708
      ],
      "min": [
        -0.5675439834594727,
        -1.002323031425476,
        -0.06863199919462204
      ]
    },
    {
      "bufferView": 2,
      "byteOffset": 0,
      "componentType": 5126,
      "normalized": false,
      "count": 15522,
      "type": "VEC2",
      "max": [
        0.9697265625,
        0.99951171875
      ],
      "min": [
        0.0005159378051757812,
        0.0005159378051757812
      ]
    },
    {
      "bufferView": 3,
      "byteOffset": 0,
      "componentType": 5126,
      "normalized": false,
      "count": 15522,
      "type": "VEC3",
      "max": [
        1.0,
        0.9999997615814209,
        1.0
      ],
      "min": [
        -0.9999998807907104,
        -1.0,
        -1.0
      ]
    },
    {
      "bufferView": 0,
      "byteOffset": 0,
      "componentType": 5125,
      "normalized": false,
      "count": 64806,
      "type": "SCALAR"
    }
  ],
  "asset": {
    "generator": "pygltflib@v1.16.3",
    "version": "2.0"
  },
  "bufferViews": [
    {
      "buffer": 0,
      "byteOffset": 0,
      "byteLength": 259224,
      "target": 34963
    },
    {
      "buffer": 0,
      "byteOffset": 259224,
      "byteLength": 186264,
      "target": 34962
    },
    {
      "buffer": 0,
      "byteOffset": 445488,
      "byteLength": 124176,
      "target": 34962
    },
    {
      "buffer": 0,
      "byteOffset": 569664,
      "byteLength": 186264,
      "target": 34962
    },
    {
      "buffer": 0,
      "byteOffset": 755928,
      "byteLength": 787093
    }
  ],
  "buffers": [
    {
      "uri": "Porte_d_entr\u00e9e_droit_0224054433_texture.bin",
      "byteLength": 1543024
    }
  ],
  "images": [
    {
      "mimeType": "image/jpeg",
      "bufferView": 4
    }
  ],
  "materials": [
    {
      "pbrMetallicRoughness": {
        "baseColorFactor": [
          1.0,
          1.0,
          1.0,
          1.0
        ],
        "metallicFactor": 0.0,
        "roughnessFactor": 0.8,
        "baseColorTexture": {
          "index": 0,
          "texCoord": 0
        }
      },
      "emissiveFactor": [
        0.0,
        0.0,
        0.0
      ],
      "alphaMode": "OPAQUE",
      "alphaCutoff": 0.5,
      "doubleSided": true
    }
  ],
  "meshes": [
    {
      "primitives": [
        {
          "attributes": {
            "POSITION": 0,
            "NORMAL": 2,
            "TEXCOORD_0": 1
          },
          "indices": 3,
          "mode": 4,
          "material": 0
        }
      ]
    }
  ],
  "nodes": [
    {
      "mesh": 0,
      "matrix": [
        1.0,
        0.0,
        0.0,
        0.0,
        0.0,
        1.0,
        0.0,
        0.0,
        0.0,
        0.0,
        1.0,
        0.0,
        0.0,
        0.0,
        0.0,
        1.0
      ]
    }
  ],
  "samplers": [
    {
      "magFilter": 9729,
      "minFilter": 9987,
      "wrapS": 10497,
      "wrapT": 10497
    }
  ],
  "scene": 0,
  "scenes": [
    {
      "nodes": [
        0
      ]
    }
  ],
  "textures": [
    {
      "sampler": 0,
      "source": 0
    }
  ]
}