{
  "accessors": [
    {
      "bufferView": 0,
      "byteOffset": 0,
      "componentType": 5126,
      "normalized": false,
      "count": 124,
      "type": "VEC3",
      "max": [
        0.533581018447876,
        8.185734748840332,
        0.5375000238418579
      ],
      "min": [
        -0.533581018447876,
        0.0,
        -0.5218812823295593
      ]
    },
    {
      "bufferView": 1,
      "byteOffset": 0,
      "componentType": 5126,
      "normalized": false,
      "count": 124,
      "type": "VEC3",
      "max": [
        0.9927088618278503,
        1.0,
        1.0
      ],
      "min": [
        -0.9927088618278503,
        -1.0,
        -0.9709418416023254
      ]
    },
    {
      "bufferView": 2,
      "byteOffset": 0,
      "componentType": 5126,
      "normalized": false,
      "count": 124,
      "type": "VEC4",
      "max": [
        1.0,
        0.05560302734375,
        0.99267578125,
        1.0
      ],
      "min": [
        -0.97216796875,
        -0.05560302734375,
        -0.99267578125,
        1.0
      ]
    },
    {
      "bufferView": 3,
      "byteOffset": 0,
      "componentType": 5126,
      "normalized": false,
      "count": 124,
      "type": "VEC2",
      "max": [
        0.9960228204727173,
        1.3992067575454712
      ],
      "min": [
        -0.9488691091537476,
        -7.050000190734863
      ]
    },
    {
      "bufferView": 4,
      "byteOffset": 0,
      "componentType": 5121,
      "normalized": false,
      "count": 288,
      "type": "SCALAR",
      "max": [
        123.0
      ],
      "min": [
        0.0
      ]
    }
  ],
  "asset": {
    "generator": "pygltflib@v1.16.3",
    "version": "2.0"
  },
  "bufferViews": [
    {
      "buffer": 0,
      "byteOffset": 0,
      "byteLength": 1488,
      "byteStride": 12,
      "target": 34962
    },
    {
      "buffer": 0,
      "byteOffset": 1488,
      "byteLength": 1488,
      "byteStride": 12,
      "target": 34962
    },
    {
      "buffer": 0,
      "byteOffset": 2976,
      "byteLength": 1984,
      "target": 34962
    },
    {
      "buffer": 0,
      "byteOffset": 4960,
      "byteLength": 992,
      "target": 34962
    },
    {
      "buffer": 0,
      "byteOffset": 5952,
      "byteLength": 288,
      "target": 34963
    },
    {
      "buffer": 0,
      "byteOffset": 6240,
      "byteLength": 293360
    },
    {
      "buffer": 0,
      "byteOffset": 299600,
      "byteLength": 4204232
    },
    {
      "buffer": 0,
      "byteOffset": 4503832,
      "byteLength": 66164
    }
  ],
  "buffers": [
    {
      "uri": "Columns.bin",
      "byteLength": 4569996
    }
  ],
  "extensionsUsed": [
    "KHR_texture_transform"
  ],
  "images": [
    {
      "mimeType": "image/jpeg",
      "bufferView": 5,
      "name": "750320d7-acf2-ad7e-39b0-7a24c285676a"
    },
    {
      "mimeType": "image/png",
      "bufferView": 6,
      "name": "750320d7-acf2-ad7e-39b0-7a24c285676a"
    },
    {
      "mimeType": "image/jpeg",
      "bufferView": 7,
      "name": "750320d7-acf2-ad7e-39b0-7a24c285676a"
    }
  ],
  "materials": [
    {
      "pbrMetallicRoughness": {
        "baseColorFactor": [
          1.0,
          1.0,
          1.0,
          0.74
        ],
        "metallicFactor": 1.0,
        "roughnessFactor": 1.0,
        "baseColorTexture": {
          "extensions": {
            "KHR_texture_transform": {
              "offset": [
                0.0,
                0.5
              ],
              "scale": [
                0.5,
                0.5
              ]
            }
          },
          "index": 1,
          "texCoord": 0
        },
        "metallicRoughnessTexture": {
          "extensions": {
            "KHR_texture_transform": {
              "offset": [
                0.0,
                0.5
              ],
              "scale": [
                0.5,
                0.5
              ]
            }
          },
          "index": 2,
          "texCoord": 0
        }
      },
      "normalTexture": {
        "extensions": {
          "KHR_texture_transform": {
            "offset": [
              0.0,
              0.5
            ],
            "scale": [
              0.5,
              0.5
            ]
          }
        },
        "index": 0,
        "scale": 1.0
      },
      "emissiveFactor": [
        0.0,
        0.0,
        0.0
      ],
      "alphaMode": "OPAQUE",
      "alphaCutoff": 0.5,
      "doubleSided": false,
      "name": "AI Gen Texture - Buildings City_mat_0_0_0.500"
    }
  ],
  "meshes": [
    {
      "primitives": [
        {
          "attributes": {
            "POSITION": 0,
            "NORMAL": 1,
            "TANGENT": 2,
            "TEXCOORD_0": 3
          },
          "indices": 4,
          "mode": 4,
          "material": 0
        }
      ],
      "name": "Root"
    }
  ],
  "nodes": [
    {
      "children": [
        1
      ],
      "name": "New Game Object"
    },
    {
      "mesh": 0,
      "name": "Root"
    }
  ],
  "samplers": [
    {
      "minFilter": 9987,
      "wrapS": 10497,
      "wrapT": 10497
    }
  ],
  "scene": 0,
  "scenes": [
    {
      "name": "Columns_1-",
      "nodes": [
        0
      ]
    }
  ],
  "textures": [
    {
      "sampler": 0,
      "source": 0,
      "name": "750320d7-acf2-ad7e-39b0-7a24c285676a"
    },
    {
      "sampler": 0,
      "source": 1,
      "name": "750320d7-acf2-ad7e-39b0-7a24c285676a"
    },
    {
      "sampler": 0,
      "source": 2,
      "name": "750320d7-acf2-ad7e-39b0-7a24c285676a"
    }
  ]
}