{"scene":0,"scenes":[{"nodes":[0]}],"asset":{"version":"2.0","generator":"https://github.com/mikedh/trimesh"},"accessors":[{"componentType":5125,"type":"SCALAR","bufferView":0,"count":198,"max":[29],"min":[0]},{"componentType":5126,"type":"VEC3","byteOffset":0,"bufferView":1,"count":30,"max":[2.0,1.25,0.125],"min":[-2.0,-1.25,-0.125]}],"meshes":[{"name":"tmpabjj9p4y.stl","extras":{"header":"\u0000\u0000\u0000\u0000\u0000\u0000\u0000\u0000\u0000\u0000\u0000\u0000\u0000\u0000\u0000\u0000\u0000\u0000\u0000\u0000\u0000\u0000\u0000\u0000\u0000\u0000\u0000\u0000\u0000\u0000\u0000\u0000\u0000\u0000\u0000\u0000\u0000\u0000\u0000\u0000\u0000\u0000\u0000\u0000\u0000\u0000\u0000\u0000\u0000\u0000\u0000\u0000\u0000\u0000\u0000\u0000\u0000\u0000\u0000\u0000\u0000\u0000\u0000\u0000\u0000\u0000\u0000\u0000\u0000\u0000\u0000\u0000\u0000\u0000\u0000\u0000\u0000\u0000\u0000\u0000","processed":true,"file_path":"C:\\Users\\merya\\AppData\\Local\\Temp\\tmpabjj9p4y.stl","file_name":"tmpabjj9p4y.stl"},"primitives":[{"attributes":{"POSITION":1},"indices":0,"mode":4}]}],"nodes":[{"name":"world","children":[1]},{"name":"tmpabjj9p4y.stl","mesh":0}],"buffers":[{"uri":"gltf_buffer_0.bin","byteLength":792},{"uri":"gltf_buffer_1.bin","byteLength":360}],"bufferViews":[{"buffer":0,"byteOffset":0,"byteLength":792},{"buffer":1,"byteOffset":0,"byteLength":360}]}