{
  "accessors": [
    {
      "bufferView": 0,
      "byteOffset": 0,
      "componentType": 5125,
      "normalized": false,
      "count": 90000,
      "type": "SCALAR"
    },
    {
      "bufferView": 1,
      "byteOffset": 0,
      "componentType": 5126,
      "normalized": false,
      "count": 14916,
      "type": "VEC3",
      "max": [
        1.0048738718032837,
        0.7331072092056274,
        0.07735739648342133
      ],
      "min": [
        -1.0050653219223022,
        -0.7360583543777466,
        -0.08005189150571823
      ]
    },
    {
      "bufferView": 2,
      "byteOffset": 0,
      "componentType": 5126,
      "normalized": false,
      "count": 14916,
      "type": "VEC3"
    }
  ],
  "asset": {
    "generator": "pygltflib@v1.16.3",
    "version": "2.0"
  },
  "bufferViews": [
    {
      "buffer": 0,
      "byteOffset": 0,
      "byteLength": 360000,
      "target": 34963
    },
    {
      "buffer": 0,
      "byteOffset": 360000,
      "byteLength": 178992,
      "target": 34962
    },
    {
      "buffer": 0,
      "byteOffset": 538992,
      "byteLength": 178992,
      "target": 34962
    }
  ],
  "buffers": [
    {
      "uri": "./window.bin",
      "byteLength": 717984
    }
  ],
  "meshes": [
    {
      "primitives": [
        {
          "attributes": {
            "POSITION": 1,
            "NORMAL": 2
          },
          "indices": 0,
          "mode": 4
        }
      ],
      "name": "Mesh1"
    }
  ],
  "nodes": [
    {
      "mesh": 0,
      "name": "Mesh1"
    }
  ],
  "scene": 0,
  "scenes": [
    {
      "nodes": [
        0
      ]
    }
  ]
}